<svg width="31" height="32" viewBox="0 0 31 32" fill="none" xmlns="http://www.w3.org/2000/svg">
<g clip-path="url(#clip0)">
<path d="M12.8385 8.81856C12.8784 9.95061 12.6974 11.055 12.4305 12.1495C12.3515 12.4747 12.2786 12.8014 12.1958 13.1259C12.1528 13.2946 12.1828 13.3744 12.3806 13.402C13.4429 13.5492 14.5151 13.6344 15.5666 13.8545C16.1188 13.9703 16.6634 14.1222 17.2118 14.2564C17.4288 14.3093 17.4334 14.3062 17.3774 14.0922C17.1788 13.3329 17.1067 12.5575 17.0607 11.7768C16.994 10.6317 17.0407 9.49119 17.234 8.36221C17.4158 7.30226 17.741 6.27759 18.0409 5.24678C18.2357 4.57799 18.5126 3.94754 18.9329 3.39148C19.6714 2.41206 20.6501 1.75861 21.8473 1.53388C24.0585 1.11819 26.1332 1.5032 27.8811 2.97272C29.1972 4.07946 29.9856 5.49068 30.0056 7.29382C30.0317 9.65762 29.1941 11.6586 27.6617 13.4081C27.1709 13.9688 26.6861 14.5386 26.1002 15.0049C25.6423 15.37 25.166 15.7136 24.6253 15.9506C24.4458 16.0296 24.3691 16.1393 24.3906 16.3372C24.5011 17.3419 24.521 18.352 24.5593 19.3613C24.5655 19.5139 24.6268 19.5791 24.7864 19.5929C25.7842 19.6781 26.6969 20.0508 27.5705 20.5018C28.0874 20.7687 28.4678 21.2212 28.8137 21.6921C29.3767 22.4591 29.797 23.279 29.843 24.2523C29.8821 25.0637 29.7172 25.8445 29.5117 26.6215C29.3207 27.3462 28.9533 27.9683 28.441 28.5105C27.5873 29.4148 26.5726 30.0506 25.3953 30.4647C24.1214 30.9126 22.813 31.1542 21.48 31.2992C20.4553 31.4104 19.4283 31.4863 18.3967 31.5193C17.2417 31.5561 16.0889 31.6512 14.9339 31.7049C14.4054 31.7295 13.8755 31.7172 13.3455 31.6973C12.6284 31.6704 11.9097 31.6835 11.1918 31.6727C10.0145 31.6558 8.84031 31.5945 7.67144 31.4388C7.37539 31.3989 7.07321 31.438 6.77639 31.3744C5.24552 31.0461 3.78521 30.5292 2.44532 29.7139C1.8233 29.335 1.39227 28.7498 0.942056 28.1891C0.335384 27.4337 0.152845 26.5379 0.0500712 25.6183C-0.0818475 24.4417 0.0830509 23.2905 0.501816 22.1891C0.909844 21.1154 1.65841 20.3001 2.59027 19.6397C3.46845 19.0185 4.431 18.6948 5.51166 18.7447C5.62287 18.75 5.73561 18.7416 5.84606 18.75C6.00252 18.7623 6.08765 18.7086 6.12907 18.5468C6.35456 17.661 6.6276 16.7904 6.98961 15.9491C7.06094 15.7842 7.02642 15.7036 6.84849 15.6415C5.3529 15.1169 4.00456 14.3308 2.79122 13.3138C2.54962 13.1113 2.34024 12.8758 2.16461 12.6151C1.70596 11.934 1.20436 11.2798 0.873029 10.5174C0.599221 9.88772 0.492612 9.22198 0.41975 8.54935C0.305472 7.4986 0.386004 6.46626 0.691258 5.44773C0.987308 4.46064 1.50501 3.60393 2.14927 2.81472C2.32107 2.60457 2.50744 2.40593 2.67694 2.19348C3.24066 1.48633 3.97465 1.04149 4.83136 0.789156C5.92889 0.465495 7.04176 0.40337 8.1577 0.665674C9.05506 0.875823 9.82586 1.32373 10.4402 2.02014C11.1259 2.79708 11.7571 3.61544 12.1176 4.59869C12.4865 5.60342 12.7035 6.6465 12.8048 7.71412C12.8408 8.0815 12.8347 8.44965 12.8385 8.81856ZM11.8775 8.90906C11.8867 8.26557 11.8859 7.71566 11.7908 7.16957C11.6252 6.22007 11.4419 5.27516 11.0016 4.40618C10.6841 3.78034 10.2469 3.23656 9.79365 2.70581C9.3212 2.15283 8.72296 1.79082 8.02732 1.61058C7.07628 1.36438 6.1214 1.40657 5.17649 1.6658C4.5238 1.84451 3.95088 2.1628 3.4999 2.6782C3.335 2.86688 3.17164 3.05785 3.01211 3.25113C2.57187 3.78494 2.15847 4.33792 1.87853 4.97528C1.37233 6.12726 1.2312 7.33294 1.38613 8.57696C1.45132 9.1031 1.53416 9.62541 1.74584 10.1193C2.05876 10.8503 2.54349 11.4753 2.9868 12.125C3.11105 12.3067 3.26521 12.4709 3.44161 12.6128C4.02297 13.0814 4.61814 13.5255 5.2808 13.879C5.96494 14.2441 6.64064 14.6337 7.4007 14.8055C7.89693 14.9175 8.19222 15.4927 8.00354 15.9552C7.7351 16.6117 7.45286 17.2667 7.27032 17.957C7.18519 18.2807 7.11616 18.6128 6.98577 18.9188C6.68972 19.616 6.42512 19.787 5.74789 19.6965C5.3575 19.6443 4.96865 19.6811 4.58439 19.7594C3.91866 19.8951 3.34957 20.2226 2.8265 20.6437C2.24821 21.1092 1.75581 21.6515 1.46436 22.3379C1.01952 23.3841 0.872262 24.4831 1.00802 25.6129C1.06784 26.1107 1.11156 26.6307 1.36772 27.0663C1.90384 27.9767 2.57493 28.759 3.54822 29.256C4.431 29.707 5.37897 29.967 6.30547 30.2853C6.89297 30.487 7.51575 30.533 8.13853 30.5637C9.10491 30.6112 10.0698 30.7025 11.0361 30.7524C11.8499 30.7938 12.6636 30.7884 13.4797 30.7708C14.6432 30.7454 15.8052 30.7163 16.9671 30.6381C18.2173 30.5545 19.4736 30.5683 20.7214 30.4249C21.9739 30.2807 23.2356 30.1894 24.4405 29.7783C25.4091 29.4477 26.3924 29.1448 27.1594 28.407C27.6617 27.9238 28.2032 27.4736 28.4555 26.7925C28.7109 26.1014 28.8544 25.3843 28.9019 24.6503C28.9717 23.5689 28.4578 22.7176 27.7967 21.9345C27.5774 21.6745 27.3427 21.4076 27.0236 21.2726C26.3962 21.0072 25.7788 20.7074 25.097 20.5923C24.7327 20.531 24.3753 20.4427 24.0301 20.3039C23.7709 20.1996 23.6536 20.0171 23.6367 19.7456C23.5845 18.8958 23.5845 18.046 23.5991 17.1954C23.6052 16.8342 23.6865 16.4698 23.6574 16.1124C23.6152 15.5932 23.8438 15.2734 24.2802 15.0648C24.5394 14.9413 24.7818 14.794 25.0165 14.6291C26.0526 13.9043 26.8533 12.9502 27.6172 11.9616C28.7002 10.5596 29.2049 8.9965 29.0875 7.20562C28.9894 5.7108 28.3152 4.54194 27.2038 3.63615C25.7144 2.42203 23.9519 2.12215 22.0981 2.45118C20.9592 2.65366 20.0672 3.29715 19.4667 4.31185C19.1721 4.80961 18.9996 5.35109 18.8439 5.90331C18.5149 7.07064 18.1544 8.22876 18.0585 9.44901C17.9642 10.6478 17.968 11.842 18.1352 13.0346C18.2111 13.5768 18.3615 14.0968 18.5624 14.6046C18.6406 14.8017 18.6299 14.9888 18.4742 15.1476C18.3162 15.3094 18.1306 15.3087 17.9327 15.2327C17.8614 15.2059 17.7878 15.1806 17.7134 15.1668C17.356 15.1031 17.3552 15.1054 17.4802 15.4459C17.5669 15.6806 17.675 15.9092 17.6535 16.1715C17.6244 16.5174 17.3245 16.6808 17.0223 16.512C16.8459 16.4131 16.7669 16.2413 16.6956 16.0657C16.6066 15.8463 16.487 15.6308 16.4456 15.4015C16.365 14.9635 16.0974 14.8094 15.6916 14.8086C15.6847 14.8086 15.6778 14.8063 15.6709 14.8048C15.5091 14.7641 15.4715 14.8362 15.4968 14.9835C15.5359 15.2097 15.5766 15.4367 15.5981 15.6653C15.6334 16.0327 15.4861 16.2796 15.2261 16.3203C14.9692 16.3602 14.7483 16.1646 14.667 15.8118C14.5918 15.4858 14.5381 15.1545 14.5143 14.8209C14.5044 14.6866 14.453 14.6168 14.318 14.6007C14.1309 14.5793 13.9453 14.5478 13.7589 14.524C13.4605 14.4857 13.4398 14.5018 13.4298 14.8055C13.4191 15.1192 13.3984 15.4321 13.3378 15.7405C13.2841 16.0166 13.0763 16.1999 12.86 16.1868C12.6422 16.1738 12.4612 15.9682 12.4274 15.6929C12.4198 15.6308 12.4182 15.5671 12.4213 15.505C12.4374 15.2128 12.4504 14.9206 12.475 14.6291C12.498 14.3599 12.4819 14.3438 12.2042 14.317C11.9274 14.2901 11.6451 14.3001 11.3759 14.2211C11.0883 14.1367 10.9602 13.9174 11.0599 13.6397C11.257 13.0929 11.3445 12.5192 11.491 11.9608C11.7617 10.9293 11.9358 9.88695 11.8775 8.90906Z" fill="black"/>
<path d="M24.8938 7.22861C24.8945 7.41268 24.847 7.58755 24.8109 7.76549C24.6062 8.78939 24.2403 9.76267 23.8438 10.7222C23.2923 12.0567 22.8713 13.4388 22.3413 14.7802C22.2516 15.0064 22.1641 15.2342 22.0238 15.4375C21.8443 15.6959 21.5789 15.8003 21.3688 15.6875C21.1395 15.5648 21.062 15.3232 21.2077 15.0133C21.5736 14.2349 21.8412 13.4211 22.122 12.6112C22.5576 11.3526 23.0891 10.1308 23.537 8.87682C23.7134 8.38366 23.8131 7.86903 23.9297 7.35899C23.9673 7.19563 23.9957 7.03073 24.0754 6.8804C24.1882 6.66718 24.34 6.58128 24.5471 6.6158C24.7634 6.65185 24.8393 6.81061 24.8754 6.99852C24.8899 7.07445 24.8884 7.15268 24.8938 7.22861Z" fill="black"/>
<path d="M8.86859 13.79C8.86936 13.994 8.82871 14.1436 8.66458 14.2095C8.49354 14.2786 8.34935 14.2072 8.23584 14.0769C8.06788 13.8843 7.97431 13.6512 7.88994 13.4142C7.62533 12.6679 7.49495 11.8887 7.36303 11.1133C7.17206 9.98967 6.83766 8.90288 6.56002 7.80228C6.46415 7.42339 6.39052 7.03991 6.32226 6.65642C6.29541 6.5061 6.29388 6.3504 6.31765 6.19777C6.33606 6.07889 6.39742 5.98609 6.5232 5.96232C6.65052 5.93854 6.74255 6.00296 6.79394 6.11264C6.86757 6.26987 6.9481 6.42787 6.99259 6.59506C7.28864 7.6995 7.64297 8.78936 7.84469 9.91604C8.00652 10.8234 8.19366 11.7223 8.48894 12.5966C8.55797 12.8014 8.61779 13.0085 8.70599 13.2071C8.79343 13.405 8.85709 13.6113 8.86859 13.79Z" fill="black"/>
<path d="M17.5078 19.899C17.5093 20.0294 17.4986 20.1467 17.4595 20.2602C17.3559 20.5632 17.1573 20.738 16.9027 20.7457C16.6304 20.7541 16.319 20.5478 16.2147 20.2886C16.0452 19.8691 16.2799 19.326 16.7017 19.1611C16.9893 19.0484 17.2838 19.1658 17.4181 19.4449C17.4886 19.593 17.5155 19.7486 17.5078 19.899Z" fill="black"/>
<path d="M13.2028 19.5945C13.202 19.9113 13.1108 20.1406 12.9213 20.3216C12.6291 20.6015 12.1835 20.5156 12.0209 20.146C11.8721 19.8093 11.912 19.4741 12.0922 19.165C12.2096 18.9641 12.3944 18.8383 12.6475 18.8636C12.9068 18.8897 13.0578 19.0477 13.1476 19.2785C13.1936 19.3974 13.2074 19.5209 13.2028 19.5945Z" fill="black"/>
<path d="M14.5581 20.7066C14.3387 20.6805 14.1186 20.5846 13.956 20.3913C13.841 20.2541 13.8141 20.0869 13.9169 19.9273C14.0235 19.7624 14.1838 19.7103 14.3702 19.764C14.5374 19.8123 14.6961 19.8874 14.8334 19.9941C14.9929 20.1175 15.0405 20.2893 14.973 20.4788C14.9109 20.6514 14.7621 20.7035 14.5581 20.7066Z" fill="black"/>
<path d="M17.0953 21.6484C16.9818 21.4796 16.7701 21.4075 16.5607 21.4766C16.2831 21.5686 16.0069 21.6645 15.7331 21.7657C14.9547 22.0541 14.1908 21.9544 13.433 21.6867C13.1622 21.5908 12.9245 21.4328 12.6875 21.271C12.4727 21.1245 12.2028 21.1537 12.0524 21.3117C11.9014 21.4704 11.8852 21.7258 12.0333 21.9053C12.0448 21.9199 12.057 21.9329 12.0693 21.9467C12.0854 21.962 12.1491 22.0211 12.1867 22.0426C12.3631 22.1454 12.8432 22.4031 13.3364 22.4736C13.8763 22.5541 14.4208 22.6216 15.0475 22.6692C15.694 22.6891 16.3145 22.5603 16.3145 22.5603C16.4418 22.5181 16.5737 22.4736 16.7064 22.436C16.8406 22.3977 16.958 22.3179 17.0493 22.2059C17.1965 22.0257 17.2134 21.824 17.0953 21.6484Z" fill="black"/>
</g>
<defs>
<clipPath id="clip0">
<rect width="30" height="31.218" fill="white" transform="translate(0.00634766 0.5)"/>
</clipPath>
</defs>
</svg>
